<svg width="40" height="40" viewBox="0 0 40 40" fill="none" xmlns="http://www.w3.org/2000/svg">
<path d="M26.0547 23.1144C25.4226 22.1208 24.5563 21.3026 23.5339 20.7301L23.5337 9.45533C23.5337 7.5499 21.9835 6 20.0784 6C18.1729 6 16.623 7.55015 16.623 9.45533V20.7301C15.6006 21.3026 14.7343 22.1205 14.1023 23.1144C13.3811 24.2478 13 25.5599 13 26.909C13 30.812 16.1754 33.9879 20.0783 33.9879C23.9812 33.9879 27.1566 30.8125 27.1566 26.909C27.1566 25.5597 26.7755 24.2476 26.0546 23.1144H26.0547ZM20.0783 32.7679C16.8478 32.7679 14.2195 30.1396 14.2195 26.9091C14.2195 24.6562 15.4772 22.6395 17.5014 21.6461L17.8426 21.4786V9.45557C17.8426 8.22266 18.8456 7.21983 20.0783 7.21983C21.3113 7.21983 22.3141 8.22285 22.3141 9.45557V21.4786L22.6553 21.6461C24.6795 22.6395 25.9372 24.6562 25.9372 26.9091C25.9372 30.1396 23.3089 32.7679 20.0784 32.7679H20.0783Z" fill="#AAAAB0"/>
<path d="M22.0286 22.9229L20.8913 22.3649V9.45532C20.8913 9.00716 20.5266 8.64249 20.0784 8.64249C19.6303 8.64249 19.2656 9.00716 19.2656 9.45532V22.3649L18.1283 22.9229C16.595 23.6753 15.6426 25.2024 15.6426 26.9085C15.6426 29.3545 17.6324 31.3443 20.0784 31.3443C22.5244 31.3443 24.5143 29.3545 24.5143 26.9085C24.5143 25.2024 23.5618 23.6753 22.0286 22.9229V22.9229Z" fill="#AAAAB0"/>
</svg>
